<?xml version="1.0" encoding="UTF-8" standalone="no"?>
<!-- Created with Inkscape (http://www.inkscape.org/) -->

<svg
   xmlns:dc="http://purl.org/dc/elements/1.1/"
   xmlns:cc="http://creativecommons.org/ns#"
   xmlns:rdf="http://www.w3.org/1999/02/22-rdf-syntax-ns#"
   xmlns:svg="http://www.w3.org/2000/svg"
   xmlns="http://www.w3.org/2000/svg"
   xmlns:xlink="http://www.w3.org/1999/xlink"
   xmlns:sodipodi="http://sodipodi.sourceforge.net/DTD/sodipodi-0.dtd"
   xmlns:inkscape="http://www.inkscape.org/namespaces/inkscape"
   width="1000"
   height="345.28732"
   viewBox="0 0 264.58333 91.357269"
   version="1.1"
   id="svg8"
   inkscape:version="0.92.4 (5da689c313, 2019-01-14)"
   sodipodi:docname="A.svg">
  <defs
     id="defs2">
    <linearGradient
       id="linearGradient303"
       inkscape:collect="always">
      <stop
         id="stop299"
         offset="0"
         style="stop-color:#f2f5f6;stop-opacity:1" />
      <stop
         style="stop-color:#73a3b9;stop-opacity:1"
         offset="0.10922748"
         id="stop307" />
      <stop
         id="stop309"
         offset="0.20853354"
         style="stop-color:#1d6687;stop-opacity:1" />
      <stop
         style="stop-color:#003d60;stop-opacity:1"
         offset="0.29361725"
         id="stop311" />
      <stop
         id="stop301"
         offset="1"
         style="stop-color:#003d60;stop-opacity:1" />
    </linearGradient>
    <clipPath
       id="clipPath41"
       clipPathUnits="userSpaceOnUse">
      <path
         inkscape:connector-curvature="0"
         id="path39"
         d="M 0,0 H 612 V 792 H 0 Z" />
    </clipPath>
    <linearGradient
       gradientTransform="matrix(1.4682731,0,0,1.4682731,-235.31202,-317.87415)"
       gradientUnits="userSpaceOnUse"
       y2="681.70587"
       x2="547.01941"
       y1="681.70587"
       x1="513.52722"
       id="linearGradient305"
       xlink:href="#linearGradient303"
       inkscape:collect="always" />
    <clipPath
       id="clipPath461"
       clipPathUnits="userSpaceOnUse">
      <path
         inkscape:connector-curvature="0"
         id="path459"
         d="M 305.524,0 H 487.807 V 135.96 H 305.524 Z" />
    </clipPath>
    <clipPath
       id="clipPath41-6"
       clipPathUnits="userSpaceOnUse">
      <path
         inkscape:connector-curvature="0"
         id="path39-0"
         d="M 0,0 H 612 V 792 H 0 Z" />
    </clipPath>
    <clipPath
       id="clipPath461-2"
       clipPathUnits="userSpaceOnUse">
      <path
         inkscape:connector-curvature="0"
         id="path459-1"
         d="M 305.524,0 H 487.807 V 135.96 H 305.524 Z" />
    </clipPath>
    <clipPath
       clipPathUnits="userSpaceOnUse"
       id="clipPath1163">
      <path
         d="M 79.818,27.394 H 532.857 V 75.94 H 79.818 Z"
         id="path1161"
         inkscape:connector-curvature="0" />
    </clipPath>
    <clipPath
       clipPathUnits="userSpaceOnUse"
       id="clipPath545">
      <path
         d="m 429.477,113.709 h 52.251 v 22.973 h -52.251 z"
         id="path543"
         inkscape:connector-curvature="0" />
    </clipPath>
    <clipPath
       clipPathUnits="userSpaceOnUse"
       id="clipPath8981">
      <path
         d="m 108.627,588.635 v -17.571 h -2.559 c -2.209,0 -4.015,-1.802 -4.015,-4.006 v 0 -14.795 c 0,-2.203 1.806,-4.006 4.015,-4.006 v 0 h 2.559 v -8.95 l 4.84,-4.321 4.717,4.321 4.72,-4.505 4.84,4.505 4.839,-4.321 4.717,4.321 4.719,-4.505 4.841,4.505 4.839,-4.321 4.717,4.321 4.719,-4.505 4.84,4.505 4.84,-4.321 4.716,4.321 4.72,-4.505 4.841,4.505 4.839,-4.321 4.716,4.321 4.719,-4.505 4.839,4.505 4.841,-4.321 4.717,4.321 4.719,-4.505 4.84,4.505 4.839,-4.321 4.718,4.321 4.718,-4.505 4.84,4.505 4.841,-4.321 4.718,4.321 v 8.95 h 1.948 c 2.208,0 4.015,1.803 4.015,4.006 v 0 14.795 c 0,2.204 -1.807,4.006 -4.015,4.006 v 0 h -1.948 v 17.571 z"
         id="path8979"
         inkscape:connector-curvature="0" />
    </clipPath>
  </defs>
  <sodipodi:namedview
     id="base"
     pagecolor="#ffffff"
     bordercolor="#666666"
     borderopacity="1.0"
     inkscape:pageopacity="0.82352941"
     inkscape:pageshadow="2"
     inkscape:zoom="0.7"
     inkscape:cx="590.41158"
     inkscape:cy="416.58311"
     inkscape:document-units="px"
     inkscape:current-layer="layer1"
     showgrid="false"
     units="px"
     inkscape:window-width="1920"
     inkscape:window-height="1017"
     inkscape:window-x="1912"
     inkscape:window-y="-8"
     inkscape:window-maximized="1"
     inkscape:pagecheckerboard="true"
     fit-margin-top="0"
     fit-margin-left="0"
     fit-margin-right="0"
     fit-margin-bottom="0">
    <inkscape:grid
       type="xygrid"
       id="grid26"
       originx="-237.62597"
       originy="-120.18962" />
  </sodipodi:namedview>
  <metadata
     id="metadata5">
    <rdf:RDF>
      <cc:Work
         rdf:about="">
        <dc:format>image/svg+xml</dc:format>
        <dc:type
           rdf:resource="http://purl.org/dc/dcmitype/StillImage" />
        <dc:title></dc:title>
      </cc:Work>
    </rdf:RDF>
  </metadata>
  <g
     inkscape:label="Layer 1"
     inkscape:groupmode="layer"
     id="layer1"
     transform="translate(-237.62597,-85.4531)">
    <g
       transform="matrix(1.6970717,0,0,-1.6970717,64.434716,1084.4089)"
       id="g8975">
      <g
         id="g8977"
         clip-path="url(#clipPath8981)">
        <g
           id="g8983"
           transform="translate(127.7441,599.7407)">
          <path
             d="m 0,0 v -60.434 l -4.84,-4.504 -4.72,4.504 V 0 Z m 19.116,0 v -60.434 l -4.841,-4.504 -4.718,4.504 V 0 Z m 19.115,0 v -60.434 l -4.84,-4.504 -4.719,4.504 V 0 Z m 19.117,0 v -60.434 l -4.841,-4.504 -4.72,4.504 V 0 Z m 19.113,0 v -60.434 l -4.839,-4.504 -4.719,4.504 V 0 Z m 19.116,0 v -60.434 l -4.841,-4.504 -4.717,4.504 V 0 Z m 19.115,0 v -60.434 l -4.838,-4.504 -4.719,4.504 V 0 Z"
             style="fill:#ffcb05;fill-opacity:1;fill-rule:evenodd;stroke:none"
             id="path8985"
             inkscape:connector-curvature="0" />
        </g>
        <g
           id="g8987"
           transform="translate(122.9658,545.5664)">
          <path
             d="m 0,0 c 1.291,0 2.345,-1.053 2.345,-2.342 0,-1.29 -1.054,-2.342 -2.345,-2.342 -1.293,0 -2.347,1.052 -2.347,2.342 C -2.347,-1.053 -1.293,0 0,0 m 19.105,0 c 1.291,0 2.345,-1.053 2.345,-2.342 0,-1.29 -1.054,-2.342 -2.345,-2.342 -1.292,0 -2.346,1.052 -2.346,2.342 0,1.289 1.054,2.342 2.346,2.342 m 19.106,0 c 1.291,0 2.345,-1.053 2.345,-2.342 0,-1.29 -1.054,-2.342 -2.345,-2.342 -1.293,0 -2.345,1.052 -2.345,2.342 0,1.289 1.052,2.342 2.345,2.342 m 19.106,0 c 1.29,0 2.344,-1.053 2.344,-2.342 0,-1.29 -1.054,-2.342 -2.344,-2.342 -1.291,0 -2.344,1.052 -2.344,2.342 0,1.289 1.053,2.342 2.344,2.342 m 19.106,0 c 1.293,0 2.345,-1.053 2.345,-2.342 0,-1.29 -1.052,-2.342 -2.345,-2.342 -1.291,0 -2.345,1.052 -2.345,2.342 0,1.289 1.054,2.342 2.345,2.342 m 19.105,0 c 1.293,0 2.347,-1.053 2.347,-2.342 0,-1.29 -1.054,-2.342 -2.347,-2.342 -1.291,0 -2.344,1.052 -2.344,2.342 0,1.289 1.053,2.342 2.344,2.342 m 19.108,0 c 1.291,0 2.344,-1.053 2.344,-2.342 0,-1.29 -1.053,-2.342 -2.344,-2.342 -1.293,0 -2.347,1.052 -2.347,2.342 0,1.289 1.054,2.342 2.347,2.342 M -14.339,54.174 V 25.498 h -2.559 c -2.208,0 -4.015,-1.803 -4.015,-4.007 V 6.697 c 0,-2.203 1.807,-4.007 4.015,-4.007 h 2.559 v -8.95 l 4.841,-4.32 4.717,4.32 v 8.95 h 9.559 v -8.95 l 4.839,-4.32 4.718,4.32 v 8.95 h 9.56 v -8.95 l 4.838,-4.32 4.717,4.32 v 8.95 h 9.56 v -8.95 l 4.839,-4.32 4.716,4.32 v 8.95 h 9.561 v -8.95 l 4.839,-4.32 4.717,4.32 v 8.95 h 9.557 v -8.95 l 4.841,-4.32 4.717,4.32 v 8.95 h 9.558 v -8.95 l 4.84,-4.32 4.718,4.32 v 8.95 h 9.558 v -8.95 l 4.841,-4.32 4.718,4.32 v 8.95 h 1.949 c 2.207,0 4.014,1.804 4.014,4.007 v 14.794 c 0,2.204 -1.807,4.007 -4.014,4.007 h -1.949 v 28.676 h -9.559 V 25.498 h -9.558 v 28.676 h -9.558 V 25.498 H 90.797 V 54.174 H 81.239 V 25.498 H 71.682 V 54.174 H 62.126 V 25.498 H 52.565 V 54.174 H 43.01 V 25.498 H 33.45 V 54.174 H 23.895 V 25.498 h -9.56 V 54.174 H 4.778 V 25.498 h -9.559 v 28.676 z"
             style="fill:#ed1d24;fill-opacity:1;fill-rule:evenodd;stroke:none"
             id="path8989"
             inkscape:connector-curvature="0" />
        </g>
        <g
           id="g8991"
           transform="translate(244.3271,553.8203)">
          <path
             d="M 0,0 0.311,0.813 H 4.769 L 5.079,0 c 0.312,-0.832 0.971,-1.262 1.901,-1.262 1.221,0 2.016,0.76 2.016,1.901 0,0.367 -0.058,0.677 -0.136,0.871 l -3.431,9.523 c -0.505,1.413 -0.95,2.052 -2.25,2.052 H 1.88 c -1.221,0 -1.765,-0.619 -2.269,-2.052 L -3.781,1.51 C -3.858,1.316 -3.896,1.006 -3.896,0.658 c 0,-1.16 0.774,-1.92 2.015,-1.92 0.911,0 1.57,0.449 1.881,1.262 M 1.144,3.736 2.56,8.556 3.956,3.736 Z M -11.147,2.574 v 8.479 c 0,1.316 -0.778,2.032 -2.232,2.032 -1.414,0 -2.228,-0.774 -2.228,-2.11 v -9.95 c 0,-1.412 0.699,-2.05 2.228,-2.05 h 6.36 c 1.28,0 1.939,0.619 1.939,1.722 0,1.239 -0.659,1.877 -1.958,1.877 z M -26.64,0 l 0.311,0.813 h 4.458 L -21.56,0 c 0.311,-0.832 0.97,-1.262 1.901,-1.262 1.221,0 2.015,0.76 2.015,1.901 0,0.367 -0.057,0.677 -0.135,0.871 l -3.433,9.523 c -0.504,1.413 -0.949,2.052 -2.248,2.052 h -1.299 c -1.221,0 -1.765,-0.619 -2.269,-2.052 L -30.421,1.51 c -0.077,-0.194 -0.115,-0.504 -0.115,-0.852 0,-1.16 0.774,-1.92 2.015,-1.92 0.911,0 1.571,0.449 1.881,1.262 m 1.144,3.736 1.416,4.82 1.394,-4.82 z m -9.598,7.839 -2.036,-7.665 -2.036,7.665 c -0.271,1.026 -0.93,1.548 -1.803,1.548 -1.454,0 -2.364,-0.773 -2.364,-1.916 0,-0.27 0.058,-0.58 0.173,-0.929 l 3.297,-9.891 c 0.331,-1.006 1.105,-1.59 2.016,-1.59 h 1.397 c 0.91,0 1.667,0.584 2.015,1.59 l 3.335,9.891 c 0.118,0.349 0.156,0.677 0.156,0.929 0,1.143 -0.91,1.916 -2.366,1.916 -0.872,0 -1.511,-0.522 -1.784,-1.548 M -52.833,6.91 v 2.613 h 1.918 c 1.319,0 1.998,-0.212 1.998,-1.239 0,-1.122 -0.562,-1.374 -1.88,-1.374 z m 0,-6.115 v 2.98 h 1.9 c 1.357,0 1.725,-0.388 1.88,-1.781 0.136,-1.297 0.116,-2.187 0.776,-2.729 0.406,-0.332 0.91,-0.488 1.532,-0.488 1.396,0 2.19,0.643 2.19,1.688 0,0.445 -0.117,0.968 -0.194,1.588 -0.096,0.832 -0.116,1.373 -0.193,1.605 -0.312,1.045 -0.893,1.51 -2.23,1.781 1.667,0.62 2.423,1.723 2.423,3.485 0,2.941 -1.861,3.968 -5.835,3.968 h -3.977 c -1.996,0 -2.693,-0.64 -2.693,-2.576 V 0.871 c 0,-1.336 0.814,-2.113 2.19,-2.113 1.417,0 2.231,0.74 2.231,2.037 m -15.241,12.097 c -1.996,0 -2.694,-0.64 -2.694,-2.576 V 1.549 c 0,-1.936 0.698,-2.574 2.694,-2.574 h 6.824 c 1.262,0 1.9,0.58 1.9,1.644 0,1.123 -0.676,1.742 -1.958,1.742 h -4.981 V 4.51 h 3.896 c 1.125,0 1.725,0.562 1.725,1.626 0,1.123 -0.582,1.567 -1.82,1.567 h -3.801 v 1.86 h 4.768 c 1.261,0 1.901,0.58 1.901,1.625 0,1.103 -0.68,1.704 -1.958,1.704 z m -14.23,-12.06 v 4.665 c 0,0.62 -0.019,1.239 -0.117,1.898 0.253,-0.891 0.582,-1.666 0.99,-2.323 l 2.868,-4.685 c 0.717,-1.18 1.512,-1.59 2.774,-1.59 1.552,0 2.364,0.797 2.364,2.365 v 9.891 c 0,1.336 -0.737,2.032 -2.132,2.032 -1.339,0 -2.132,-0.774 -2.132,-2.11 V 6.33 c 0,-0.601 0,-1.239 0.115,-1.897 -0.349,0.967 -0.697,1.761 -1.086,2.38 l -2.868,4.705 c -0.66,1.083 -1.435,1.567 -2.54,1.567 -1.57,0 -2.483,-0.853 -2.483,-2.284 V 0.91 c 0,-1.336 0.795,-2.113 2.134,-2.113 1.395,0 2.113,0.701 2.113,2.035 M -97.563,0 l 0.309,0.813 h 4.46 L -92.482,0 c 0.308,-0.832 0.967,-1.262 1.898,-1.262 1.223,0 2.018,0.76 2.018,1.901 0,0.367 -0.06,0.677 -0.136,0.871 l -3.432,9.523 c -0.505,1.413 -0.951,2.052 -2.249,2.052 h -1.299 c -1.221,0 -1.765,-0.619 -2.269,-2.052 l -3.393,-9.523 c -0.077,-0.194 -0.117,-0.504 -0.117,-0.852 0,-1.16 0.776,-1.92 2.018,-1.92 0.911,0 1.57,0.449 1.88,1.262 m 1.144,3.736 1.416,4.82 1.395,-4.82 z m -14.212,-2.904 v 2.574 l 1.105,1.143 2.714,-4.375 c 0.583,-0.947 1.164,-1.436 2.016,-1.436 1.224,0 2.327,0.991 2.327,2.114 0,0.638 -0.251,1.162 -0.62,1.742 l -3.316,5.168 1.532,1.588 c 0.776,0.793 1.203,1.412 1.203,2.07 0,0.93 -0.795,1.684 -1.881,1.684 -0.621,0 -1.125,-0.271 -1.63,-0.852 l -3.45,-3.968 v 2.769 c 0,1.316 -0.776,2.032 -2.211,2.032 -1.396,0 -2.228,-0.774 -2.228,-2.11 V 0.91 c 0,-1.336 0.832,-2.113 2.228,-2.113 1.435,0 2.211,0.72 2.211,2.035 m -7.328,0.078 v 10.143 c 0,1.316 -0.777,2.032 -2.231,2.032 -1.414,0 -2.229,-0.774 -2.229,-2.11 V 0.832 c 0,-1.334 0.774,-2.035 2.229,-2.035 1.417,0 2.231,0.777 2.231,2.113 m -15.337,6.426 v 2.4 h 1.241 c 1.608,0 2.287,-0.096 2.287,-1.2 0,-0.929 -0.542,-1.2 -1.687,-1.2 z m 0,-5.109 v 2.574 h 2.036 c 1.319,0 1.939,-0.311 1.939,-1.278 0,-0.968 -0.582,-1.296 -1.902,-1.296 z m -1.647,-3.252 h 3.469 c 1.706,0 3.122,0 4.343,0.619 1.299,0.658 2.017,1.896 2.017,3.561 0,1.665 -0.68,2.71 -2.172,3.251 1.126,0.601 1.687,1.549 1.687,2.808 0,1.606 -0.775,2.748 -2.191,3.27 -1.008,0.387 -2.249,0.408 -3.781,0.408 h -3.372 c -1.998,0 -2.696,-0.64 -2.696,-2.576 V 1.549 c 0,-1.936 0.698,-2.574 2.696,-2.574"
             style="fill:#ffffff;fill-opacity:1;fill-rule:evenodd;stroke:none"
             id="path8993"
             inkscape:connector-curvature="0" />
        </g>
        <g
           id="g8995"
           transform="translate(247.1494,545.5664)">
          <path
             d="m 0,0 c 1.291,0 2.345,-1.053 2.345,-2.342 0,-1.29 -1.054,-2.342 -2.345,-2.342 -1.292,0 -2.347,1.052 -2.347,2.342 C -2.347,-1.053 -1.292,0 0,0 m -19.107,0 c 1.293,0 2.346,-1.053 2.346,-2.342 0,-1.29 -1.053,-2.342 -2.346,-2.342 -1.291,0 -2.345,1.052 -2.345,2.342 0,1.289 1.054,2.342 2.345,2.342 m -19.106,0 c 1.293,0 2.345,-1.053 2.345,-2.342 0,-1.29 -1.052,-2.342 -2.345,-2.342 -1.291,0 -2.345,1.052 -2.345,2.342 0,1.289 1.054,2.342 2.345,2.342 m -19.105,0 c 1.29,0 2.343,-1.053 2.343,-2.342 0,-1.29 -1.053,-2.342 -2.343,-2.342 -1.291,0 -2.345,1.052 -2.345,2.342 0,1.289 1.054,2.342 2.345,2.342 m -19.107,0 c 1.291,0 2.345,-1.053 2.345,-2.342 0,-1.29 -1.054,-2.342 -2.345,-2.342 -1.293,0 -2.345,1.052 -2.345,2.342 0,1.289 1.052,2.342 2.345,2.342 M -95.53,0 c 1.291,0 2.344,-1.053 2.344,-2.342 0,-1.29 -1.053,-2.342 -2.344,-2.342 -1.293,0 -2.347,1.052 -2.347,2.342 0,1.289 1.054,2.342 2.347,2.342 m -19.106,0 c 1.291,0 2.345,-1.053 2.345,-2.342 0,-1.29 -1.054,-2.342 -2.345,-2.342 -1.293,0 -2.346,1.052 -2.346,2.342 0,1.289 1.053,2.342 2.346,2.342 m -19.107,0 c 1.292,0 2.346,-1.053 2.346,-2.342 0,-1.29 -1.054,-2.342 -2.346,-2.342 -1.291,0 -2.345,1.052 -2.345,2.342 0,1.289 1.054,2.342 2.345,2.342"
             style="fill:#ffcb05;fill-opacity:1;fill-rule:evenodd;stroke:none"
             id="path8997"
             inkscape:connector-curvature="0" />
        </g>
      </g>
    </g>
  </g>
</svg>
